<?xml version="1.0" standalone="no"?>
<!DOCTYPE svg PUBLIC "-//W3C//DTD SVG 20010904//EN"
 "http://www.w3.org/TR/2001/REC-SVG-20010904/DTD/svg10.dtd">
<svg version="1.0" xmlns="http://www.w3.org/2000/svg"
 width="372.000000pt" height="372.000000pt" viewBox="0 0 372.000000 372.000000"
 preserveAspectRatio="xMidYMid meet">
<metadata>
Created by potrace 1.14, written by Peter Selinger 2001-2017
</metadata>
<g transform="translate(0.000000,372.000000) scale(0.100000,-0.100000)"
fill="#000000" stroke="none">
<path d="M543 3633 c-23 -20 -28 -33 -29 -75 -2 -44 17 -119 45 -183 5 -11 27
-61 50 -112 22 -50 41 -94 41 -97 0 -10 -74 24 -82 37 -4 7 -8 8 -8 4 0 -8
-73 28 -100 49 -8 7 -18 13 -23 13 -4 1 -24 8 -45 17 -117 50 -174 51 -213 4
-20 -24 -25 -39 -22 -67 4 -42 30 -102 67 -156 14 -21 26 -42 26 -47 0 -4 4
-10 8 -12 5 -1 28 -32 52 -68 24 -36 46 -67 49 -70 8 -7 38 -50 112 -161 35
-52 69 -100 76 -107 7 -7 13 -17 13 -20 0 -18 118 -54 177 -55 20 0 35 -50 39
-127 2 -58 -3 -97 -23 -165 -14 -50 -27 -99 -30 -110 -6 -19 -14 -224 -16
-370 -1 -67 6 -134 17 -165 33 -94 25 -263 -16 -303 -7 -7 -35 -14 -63 -16
-88 -5 -128 -30 -198 -121 -60 -78 -149 -189 -177 -219 -8 -9 -28 -35 -45 -56
-16 -22 -35 -46 -42 -54 -29 -29 -98 -138 -110 -173 -18 -53 -7 -96 31 -119
60 -37 155 -14 394 98 30 13 56 22 59 19 6 -5 -57 -127 -70 -137 -5 -3 -9 -10
-10 -15 0 -5 -15 -41 -33 -81 -48 -104 -60 -174 -36 -211 32 -50 85 -58 159
-24 42 19 135 73 143 82 7 9 140 100 145 100 3 0 14 8 24 17 30 27 39 34 136
97 50 32 103 70 118 84 27 26 54 97 59 155 1 15 6 27 11 27 4 0 5 5 2 10 -3 6
-3 10 2 11 4 0 17 3 28 6 11 3 54 6 95 8 61 2 94 -3 175 -27 85 -26 123 -31
250 -36 217 -9 302 -6 369 12 33 8 63 13 67 10 4 -2 10 -1 13 4 8 13 96 14
150 1 77 -18 94 -33 94 -80 2 -105 23 -137 157 -239 52 -40 102 -82 111 -94 8
-11 16 -19 18 -16 3 3 15 -4 28 -15 26 -23 133 -109 173 -141 98 -76 188 -106
231 -77 66 43 53 145 -41 351 -19 39 -31 72 -29 72 3 0 -2 7 -10 16 -16 15
-22 44 -10 44 3 0 43 -20 87 -43 119 -64 120 -64 150 -76 15 -6 37 -15 50 -21
35 -15 107 -29 130 -24 39 7 71 50 70 91 -1 48 -60 172 -110 233 -7 8 -49 67
-93 130 -44 63 -87 123 -95 132 -8 9 -22 32 -31 50 -48 94 -109 143 -192 154
-81 10 -92 25 -97 118 -4 70 5 145 22 186 23 56 43 181 44 281 0 57 1 140 2
184 1 84 -3 121 -27 220 -13 55 -14 141 -2 190 2 11 5 25 5 31 2 24 30 46 62
50 110 11 119 15 168 63 27 26 61 67 76 89 15 23 32 42 36 42 5 0 9 4 9 10 0
5 9 20 19 32 11 13 29 33 39 46 11 13 35 42 54 65 18 22 41 49 51 59 9 10 17
23 17 28 0 6 3 10 8 10 13 0 111 153 118 185 4 17 11 36 17 43 6 8 6 12 -2 12
-6 0 -11 9 -11 20 0 12 -13 29 -32 41 -52 32 -125 19 -293 -52 -16 -7 -32 -13
-35 -13 -3 -1 -31 -14 -63 -29 -33 -16 -61 -26 -64 -24 -2 3 19 49 47 103 110
205 135 295 96 350 -34 47 -89 50 -169 8 -48 -24 -219 -137 -312 -205 -22 -16
-82 -57 -134 -91 -126 -83 -155 -126 -165 -250 -5 -48 -166 -60 -291 -22 -119
36 -119 36 -265 42 -222 9 -301 6 -380 -13 -97 -23 -178 -26 -240 -10 -59 16
-74 30 -77 71 -6 118 -28 149 -178 259 -22 16 -46 35 -54 43 -7 7 -59 50 -115
95 -55 45 -107 87 -114 94 -7 7 -17 13 -20 13 -4 0 -18 10 -32 23 -37 33 -116
70 -155 72 -23 1 -42 -6 -62 -22z"/>
</g>
</svg>
